<?xml version="1.0" encoding="UTF-8" standalone="no"?>
<!DOCTYPE svg PUBLIC "-//W3C//DTD SVG 1.1//EN"
 "http://www.w3.org/Graphics/SVG/1.1/DTD/svg11.dtd">
<!-- Generated by graphviz version 2.26.3 (20100126.1600)
 -->
<!-- Title: controllers_diagram Pages: 1 -->
<svg width="1001pt" height="787pt"
 viewBox="0.00 0.00 1001.00 787.00" xmlns="http://www.w3.org/2000/svg" xmlns:xlink="http://www.w3.org/1999/xlink">
<g id="graph1" class="graph" transform="scale(1 1) rotate(0) translate(4 783)">
<title>controllers_diagram</title>
<polygon fill="white" stroke="white" points="-4,5 -4,-783 998,-783 998,5 -4,5"/>
<!-- _diagram_info -->
<g id="node1" class="node"><title>_diagram_info</title>
<text text-anchor="start" x="750" y="-762.3" font-family="Times Roman,serif" font-size="13.00">Controllers diagram</text>
<text text-anchor="start" x="750" y="-745.3" font-family="Times Roman,serif" font-size="13.00">Date: Feb 18 2013 &#45; 14:25</text>
<text text-anchor="start" x="750" y="-728.3" font-family="Times Roman,serif" font-size="13.00">Migration version: 20130218214544</text>
<text text-anchor="start" x="750" y="-711.3" font-family="Times Roman,serif" font-size="13.00">Generated by RailRoady 1.1.0</text>
<text text-anchor="start" x="750" y="-694.3" font-family="Times Roman,serif" font-size="13.00">http://railroady.prestonlee.com</text>
</g>
<!-- ApplicationController -->
<g id="node2" class="node"><title>ApplicationController</title>
<polyline fill="none" stroke="black" points="301.805,-155.817 506.805,-155.817 "/>
<path fill="none" stroke="black" d="M506.805,-155.817C512.805,-155.817 518.805,-161.817 518.805,-167.817"/>
<polyline fill="none" stroke="black" points="518.805,-167.817 518.805,-263.817 "/>
<path fill="none" stroke="black" d="M518.805,-263.817C518.805,-269.817 512.805,-275.817 506.805,-275.817"/>
<polyline fill="none" stroke="black" points="506.805,-275.817 301.805,-275.817 "/>
<path fill="none" stroke="black" d="M301.805,-275.817C295.805,-275.817 289.805,-269.817 289.805,-263.817"/>
<polyline fill="none" stroke="black" points="289.805,-263.817 289.805,-167.817 "/>
<path fill="none" stroke="black" d="M289.805,-167.817C289.805,-161.817 295.805,-155.817 301.805,-155.817"/>
<text text-anchor="middle" x="404.305" y="-259.217" font-family="Times Roman,serif" font-size="14.00">ApplicationController</text>
<polyline fill="none" stroke="black" points="289.805,-249.817 518.805,-249.817 "/>
<text text-anchor="start" x="297.805" y="-233.217" font-family="Times Roman,serif" font-size="14.00">_one_time_conditions_valid_8?</text>
<text text-anchor="start" x="297.805" y="-215.217" font-family="Times Roman,serif" font-size="14.00">set_business</text>
<polyline fill="none" stroke="black" points="289.805,-205.817 518.805,-205.817 "/>
<polyline fill="none" stroke="black" points="289.805,-181.817 518.805,-181.817 "/>
<text text-anchor="start" x="297.805" y="-165.217" font-family="Times Roman,serif" font-size="14.00">_layout</text>
</g>
<!-- BusinessesController -->
<g id="node3" class="node"><title>BusinessesController</title>
<polyline fill="none" stroke="black" points="593.036,-28.9153 730.036,-28.9153 "/>
<path fill="none" stroke="black" d="M730.036,-28.9153C736.036,-28.9153 742.036,-34.9153 742.036,-40.9153"/>
<polyline fill="none" stroke="black" points="742.036,-40.9153 742.036,-190.915 "/>
<path fill="none" stroke="black" d="M742.036,-190.915C742.036,-196.915 736.036,-202.915 730.036,-202.915"/>
<polyline fill="none" stroke="black" points="730.036,-202.915 593.036,-202.915 "/>
<path fill="none" stroke="black" d="M593.036,-202.915C587.036,-202.915 581.036,-196.915 581.036,-190.915"/>
<polyline fill="none" stroke="black" points="581.036,-190.915 581.036,-40.9153 "/>
<path fill="none" stroke="black" d="M581.036,-40.9153C581.036,-34.9153 587.036,-28.9153 593.036,-28.9153"/>
<text text-anchor="middle" x="661.536" y="-186.315" font-family="Times Roman,serif" font-size="14.00">BusinessesController</text>
<polyline fill="none" stroke="black" points="581.036,-176.915 742.036,-176.915 "/>
<text text-anchor="start" x="589.036" y="-160.315" font-family="Times Roman,serif" font-size="14.00">create</text>
<text text-anchor="start" x="589.036" y="-142.315" font-family="Times Roman,serif" font-size="14.00">edit</text>
<text text-anchor="start" x="589.036" y="-124.315" font-family="Times Roman,serif" font-size="14.00">new</text>
<text text-anchor="start" x="589.036" y="-106.315" font-family="Times Roman,serif" font-size="14.00">show</text>
<text text-anchor="start" x="589.036" y="-88.3153" font-family="Times Roman,serif" font-size="14.00">update</text>
<polyline fill="none" stroke="black" points="581.036,-78.9153 742.036,-78.9153 "/>
<polyline fill="none" stroke="black" points="581.036,-54.9153 742.036,-54.9153 "/>
<text text-anchor="start" x="589.036" y="-38.3153" font-family="Times Roman,serif" font-size="14.00">_layout</text>
</g>
<!-- ApplicationController&#45;&gt;BusinessesController -->
<g id="edge2" class="edge"><title>ApplicationController&#45;&gt;BusinessesController</title>
<path fill="none" stroke="black" d="M519.003,-171.271C539.903,-163.154 561.299,-154.845 580.949,-147.213"/>
</g>
<!-- EmployeesController -->
<g id="node4" class="node"><title>EmployeesController</title>
<polyline fill="none" stroke="black" points="39.8936,-1.5 253.894,-1.5 "/>
<path fill="none" stroke="black" d="M253.894,-1.5C259.894,-1.5 265.894,-7.5 265.894,-13.5"/>
<polyline fill="none" stroke="black" points="265.894,-13.5 265.894,-217.5 "/>
<path fill="none" stroke="black" d="M265.894,-217.5C265.894,-223.5 259.894,-229.5 253.894,-229.5"/>
<polyline fill="none" stroke="black" points="253.894,-229.5 39.8936,-229.5 "/>
<path fill="none" stroke="black" d="M39.8936,-229.5C33.8936,-229.5 27.8936,-223.5 27.8936,-217.5"/>
<polyline fill="none" stroke="black" points="27.8936,-217.5 27.8936,-13.5 "/>
<path fill="none" stroke="black" d="M27.8936,-13.5C27.8936,-7.5 33.8936,-1.5 39.8936,-1.5"/>
<text text-anchor="middle" x="146.894" y="-212.9" font-family="Times Roman,serif" font-size="14.00">EmployeesController</text>
<polyline fill="none" stroke="black" points="27.8936,-203.5 265.894,-203.5 "/>
<text text-anchor="start" x="35.8936" y="-186.9" font-family="Times Roman,serif" font-size="14.00">_one_time_conditions_valid_80?</text>
<text text-anchor="start" x="35.8936" y="-168.9" font-family="Times Roman,serif" font-size="14.00">create</text>
<text text-anchor="start" x="35.8936" y="-150.9" font-family="Times Roman,serif" font-size="14.00">destroy</text>
<text text-anchor="start" x="35.8936" y="-132.9" font-family="Times Roman,serif" font-size="14.00">edit</text>
<text text-anchor="start" x="35.8936" y="-114.9" font-family="Times Roman,serif" font-size="14.00">index</text>
<text text-anchor="start" x="35.8936" y="-96.9" font-family="Times Roman,serif" font-size="14.00">new</text>
<text text-anchor="start" x="35.8936" y="-78.9" font-family="Times Roman,serif" font-size="14.00">show</text>
<text text-anchor="start" x="35.8936" y="-60.9" font-family="Times Roman,serif" font-size="14.00">update</text>
<polyline fill="none" stroke="black" points="27.8936,-51.5 265.894,-51.5 "/>
<polyline fill="none" stroke="black" points="27.8936,-27.5 265.894,-27.5 "/>
<text text-anchor="start" x="35.8936" y="-10.9" font-family="Times Roman,serif" font-size="14.00">_layout</text>
</g>
<!-- ApplicationController&#45;&gt;EmployeesController -->
<g id="edge4" class="edge"><title>ApplicationController&#45;&gt;EmployeesController</title>
<path fill="none" stroke="black" d="M289.527,-171.086C281.751,-168.056 273.906,-164.998 266.108,-161.96"/>
</g>
<!-- PositionsController -->
<g id="node5" class="node"><title>PositionsController</title>
<polyline fill="none" stroke="black" points="13,-375.043 227,-375.043 "/>
<path fill="none" stroke="black" d="M227,-375.043C233,-375.043 239,-381.043 239,-387.043"/>
<polyline fill="none" stroke="black" points="239,-387.043 239,-591.043 "/>
<path fill="none" stroke="black" d="M239,-591.043C239,-597.043 233,-603.043 227,-603.043"/>
<polyline fill="none" stroke="black" points="227,-603.043 13,-603.043 "/>
<path fill="none" stroke="black" d="M13,-603.043C7,-603.043 1,-597.043 1,-591.043"/>
<polyline fill="none" stroke="black" points="1,-591.043 1,-387.043 "/>
<path fill="none" stroke="black" d="M1,-387.043C1,-381.043 7,-375.043 13,-375.043"/>
<text text-anchor="middle" x="120" y="-586.443" font-family="Times Roman,serif" font-size="14.00">PositionsController</text>
<polyline fill="none" stroke="black" points="1,-577.043 239,-577.043 "/>
<text text-anchor="start" x="9" y="-560.443" font-family="Times Roman,serif" font-size="14.00">_one_time_conditions_valid_82?</text>
<text text-anchor="start" x="9" y="-542.443" font-family="Times Roman,serif" font-size="14.00">create</text>
<text text-anchor="start" x="9" y="-524.443" font-family="Times Roman,serif" font-size="14.00">destroy</text>
<text text-anchor="start" x="9" y="-506.443" font-family="Times Roman,serif" font-size="14.00">edit</text>
<text text-anchor="start" x="9" y="-488.443" font-family="Times Roman,serif" font-size="14.00">index</text>
<text text-anchor="start" x="9" y="-470.443" font-family="Times Roman,serif" font-size="14.00">new</text>
<text text-anchor="start" x="9" y="-452.443" font-family="Times Roman,serif" font-size="14.00">show</text>
<text text-anchor="start" x="9" y="-434.443" font-family="Times Roman,serif" font-size="14.00">update</text>
<polyline fill="none" stroke="black" points="1,-425.043 239,-425.043 "/>
<polyline fill="none" stroke="black" points="1,-401.043 239,-401.043 "/>
<text text-anchor="start" x="9" y="-384.443" font-family="Times Roman,serif" font-size="14.00">_layout</text>
</g>
<!-- ApplicationController&#45;&gt;PositionsController -->
<g id="edge6" class="edge"><title>ApplicationController&#45;&gt;PositionsController</title>
<path fill="none" stroke="black" d="M341.561,-276.116C311.309,-305.189 273.992,-341.051 238.666,-375.001"/>
</g>
<!-- SchedulesController -->
<g id="node6" class="node"><title>SchedulesController</title>
<polyline fill="none" stroke="black" points="579.966,-384.906 793.966,-384.906 "/>
<path fill="none" stroke="black" d="M793.966,-384.906C799.966,-384.906 805.966,-390.906 805.966,-396.906"/>
<polyline fill="none" stroke="black" points="805.966,-396.906 805.966,-582.906 "/>
<path fill="none" stroke="black" d="M805.966,-582.906C805.966,-588.906 799.966,-594.906 793.966,-594.906"/>
<polyline fill="none" stroke="black" points="793.966,-594.906 579.966,-594.906 "/>
<path fill="none" stroke="black" d="M579.966,-594.906C573.966,-594.906 567.966,-588.906 567.966,-582.906"/>
<polyline fill="none" stroke="black" points="567.966,-582.906 567.966,-396.906 "/>
<path fill="none" stroke="black" d="M567.966,-396.906C567.966,-390.906 573.966,-384.906 579.966,-384.906"/>
<text text-anchor="middle" x="686.966" y="-578.306" font-family="Times Roman,serif" font-size="14.00">SchedulesController</text>
<polyline fill="none" stroke="black" points="567.966,-568.906 805.966,-568.906 "/>
<text text-anchor="start" x="575.966" y="-552.306" font-family="Times Roman,serif" font-size="14.00">_one_time_conditions_valid_86?</text>
<text text-anchor="start" x="575.966" y="-534.306" font-family="Times Roman,serif" font-size="14.00">calculate</text>
<text text-anchor="start" x="575.966" y="-516.306" font-family="Times Roman,serif" font-size="14.00">create</text>
<text text-anchor="start" x="575.966" y="-498.306" font-family="Times Roman,serif" font-size="14.00">index</text>
<text text-anchor="start" x="575.966" y="-480.306" font-family="Times Roman,serif" font-size="14.00">new</text>
<text text-anchor="start" x="575.966" y="-462.306" font-family="Times Roman,serif" font-size="14.00">show</text>
<text text-anchor="start" x="575.966" y="-444.306" font-family="Times Roman,serif" font-size="14.00">update</text>
<polyline fill="none" stroke="black" points="567.966,-434.906 805.966,-434.906 "/>
<polyline fill="none" stroke="black" points="567.966,-410.906 805.966,-410.906 "/>
<text text-anchor="start" x="575.966" y="-394.306" font-family="Times Roman,serif" font-size="14.00">_layout</text>
</g>
<!-- ApplicationController&#45;&gt;SchedulesController -->
<g id="edge8" class="edge"><title>ApplicationController&#45;&gt;SchedulesController</title>
<path fill="none" stroke="black" d="M466.336,-275.967C499.245,-307.877 540.634,-348.012 578.649,-384.874"/>
</g>
<!-- SessionsController -->
<g id="node7" class="node"><title>SessionsController</title>
<polyline fill="none" stroke="black" points="342.738,-476.378 462.738,-476.378 "/>
<path fill="none" stroke="black" d="M462.738,-476.378C468.738,-476.378 474.738,-482.378 474.738,-488.378"/>
<polyline fill="none" stroke="black" points="474.738,-488.378 474.738,-602.378 "/>
<path fill="none" stroke="black" d="M474.738,-602.378C474.738,-608.378 468.738,-614.378 462.738,-614.378"/>
<polyline fill="none" stroke="black" points="462.738,-614.378 342.738,-614.378 "/>
<path fill="none" stroke="black" d="M342.738,-614.378C336.738,-614.378 330.738,-608.378 330.738,-602.378"/>
<polyline fill="none" stroke="black" points="330.738,-602.378 330.738,-488.378 "/>
<path fill="none" stroke="black" d="M330.738,-488.378C330.738,-482.378 336.738,-476.378 342.738,-476.378"/>
<text text-anchor="middle" x="402.738" y="-597.778" font-family="Times Roman,serif" font-size="14.00">SessionsController</text>
<polyline fill="none" stroke="black" points="330.738,-588.378 474.738,-588.378 "/>
<text text-anchor="start" x="338.738" y="-571.778" font-family="Times Roman,serif" font-size="14.00">create</text>
<text text-anchor="start" x="338.738" y="-553.778" font-family="Times Roman,serif" font-size="14.00">destroy</text>
<text text-anchor="start" x="338.738" y="-535.778" font-family="Times Roman,serif" font-size="14.00">new</text>
<polyline fill="none" stroke="black" points="330.738,-526.378 474.738,-526.378 "/>
<polyline fill="none" stroke="black" points="330.738,-502.378 474.738,-502.378 "/>
<text text-anchor="start" x="338.738" y="-485.778" font-family="Times Roman,serif" font-size="14.00">_layout</text>
</g>
<!-- ApplicationController&#45;&gt;SessionsController -->
<g id="edge10" class="edge"><title>ApplicationController&#45;&gt;SessionsController</title>
<path fill="none" stroke="black" d="M404.019,-275.88C403.75,-332.413 403.348,-417.024 403.066,-476.32"/>
</g>
</g>
</svg>
