<?xml version="1.0" encoding="UTF-8" standalone="no"?>
<!DOCTYPE svg PUBLIC "-//W3C//DTD SVG 1.1//EN"
 "http://www.w3.org/Graphics/SVG/1.1/DTD/svg11.dtd">
<!-- Generated by graphviz version 2.26.3 (20100126.1600)
 -->
<!-- Title: controllers_diagram Pages: 1 -->
<svg width="1128pt" height="723pt"
 viewBox="0.00 0.00 1128.00 723.44" xmlns="http://www.w3.org/2000/svg" xmlns:xlink="http://www.w3.org/1999/xlink">
<g id="graph1" class="graph" transform="scale(1 1) rotate(0) translate(4 719.444)">
<title>controllers_diagram</title>
<polygon fill="white" stroke="white" points="-4,5 -4,-719.444 1125,-719.444 1125,5 -4,5"/>
<!-- _diagram_info -->
<g id="node1" class="node"><title>_diagram_info</title>
<text text-anchor="start" x="877" y="-388.3" font-family="Times Roman,serif" font-size="13.00">Controllers diagram</text>
<text text-anchor="start" x="877" y="-371.3" font-family="Times Roman,serif" font-size="13.00">Date: Feb 20 2013 &#45; 16:28</text>
<text text-anchor="start" x="877" y="-354.3" font-family="Times Roman,serif" font-size="13.00">Migration version: 20130221002545</text>
<text text-anchor="start" x="877" y="-337.3" font-family="Times Roman,serif" font-size="13.00">Generated by RailRoady 1.1.0</text>
<text text-anchor="start" x="877" y="-320.3" font-family="Times Roman,serif" font-size="13.00">http://railroady.prestonlee.com</text>
</g>
<!-- ApplicationController -->
<g id="node2" class="node"><title>ApplicationController</title>
<polyline fill="none" stroke="black" points="298.874,-292.008 503.874,-292.008 "/>
<path fill="none" stroke="black" d="M503.874,-292.008C509.874,-292.008 515.874,-298.008 515.874,-304.008"/>
<polyline fill="none" stroke="black" points="515.874,-304.008 515.874,-400.008 "/>
<path fill="none" stroke="black" d="M515.874,-400.008C515.874,-406.008 509.874,-412.008 503.874,-412.008"/>
<polyline fill="none" stroke="black" points="503.874,-412.008 298.874,-412.008 "/>
<path fill="none" stroke="black" d="M298.874,-412.008C292.874,-412.008 286.874,-406.008 286.874,-400.008"/>
<polyline fill="none" stroke="black" points="286.874,-400.008 286.874,-304.008 "/>
<path fill="none" stroke="black" d="M286.874,-304.008C286.874,-298.008 292.874,-292.008 298.874,-292.008"/>
<text text-anchor="middle" x="401.374" y="-395.408" font-family="Times Roman,serif" font-size="14.00">ApplicationController</text>
<polyline fill="none" stroke="black" points="286.874,-386.008 515.874,-386.008 "/>
<text text-anchor="start" x="294.874" y="-369.408" font-family="Times Roman,serif" font-size="14.00">_one_time_conditions_valid_8?</text>
<text text-anchor="start" x="294.874" y="-351.408" font-family="Times Roman,serif" font-size="14.00">set_business</text>
<polyline fill="none" stroke="black" points="286.874,-342.008 515.874,-342.008 "/>
<polyline fill="none" stroke="black" points="286.874,-318.008 515.874,-318.008 "/>
<text text-anchor="start" x="294.874" y="-301.408" font-family="Times Roman,serif" font-size="14.00">_layout</text>
</g>
<!-- ApprPositionsController -->
<g id="node3" class="node"><title>ApprPositionsController</title>
<polyline fill="none" stroke="black" points="617.28,-250.265 772.28,-250.265 "/>
<path fill="none" stroke="black" d="M772.28,-250.265C778.28,-250.265 784.28,-256.265 784.28,-262.265"/>
<polyline fill="none" stroke="black" points="784.28,-262.265 784.28,-448.265 "/>
<path fill="none" stroke="black" d="M784.28,-448.265C784.28,-454.265 778.28,-460.265 772.28,-460.265"/>
<polyline fill="none" stroke="black" points="772.28,-460.265 617.28,-460.265 "/>
<path fill="none" stroke="black" d="M617.28,-460.265C611.28,-460.265 605.28,-454.265 605.28,-448.265"/>
<polyline fill="none" stroke="black" points="605.28,-448.265 605.28,-262.265 "/>
<path fill="none" stroke="black" d="M605.28,-262.265C605.28,-256.265 611.28,-250.265 617.28,-250.265"/>
<text text-anchor="middle" x="694.78" y="-443.665" font-family="Times Roman,serif" font-size="14.00">ApprPositionsController</text>
<polyline fill="none" stroke="black" points="605.28,-434.265 784.28,-434.265 "/>
<text text-anchor="start" x="613.28" y="-417.665" font-family="Times Roman,serif" font-size="14.00">create</text>
<text text-anchor="start" x="613.28" y="-399.665" font-family="Times Roman,serif" font-size="14.00">destroy</text>
<text text-anchor="start" x="613.28" y="-381.665" font-family="Times Roman,serif" font-size="14.00">edit</text>
<text text-anchor="start" x="613.28" y="-363.665" font-family="Times Roman,serif" font-size="14.00">index</text>
<text text-anchor="start" x="613.28" y="-345.665" font-family="Times Roman,serif" font-size="14.00">new</text>
<text text-anchor="start" x="613.28" y="-327.665" font-family="Times Roman,serif" font-size="14.00">show</text>
<text text-anchor="start" x="613.28" y="-309.665" font-family="Times Roman,serif" font-size="14.00">update</text>
<polyline fill="none" stroke="black" points="605.28,-300.265 784.28,-300.265 "/>
<polyline fill="none" stroke="black" points="605.28,-276.265 784.28,-276.265 "/>
<text text-anchor="start" x="613.28" y="-259.665" font-family="Times Roman,serif" font-size="14.00">_layout</text>
</g>
<!-- ApplicationController&#45;&gt;ApprPositionsController -->
<g id="edge2" class="edge"><title>ApplicationController&#45;&gt;ApprPositionsController</title>
<path fill="none" stroke="black" d="M516.073,-353.281C545.647,-353.609 577.045,-353.958 605.136,-354.27"/>
</g>
<!-- BusinessesController -->
<g id="node4" class="node"><title>BusinessesController</title>
<polyline fill="none" stroke="black" points="77.1778,-10.6158 214.178,-10.6158 "/>
<path fill="none" stroke="black" d="M214.178,-10.6158C220.178,-10.6158 226.178,-16.6158 226.178,-22.6158"/>
<polyline fill="none" stroke="black" points="226.178,-22.6158 226.178,-172.616 "/>
<path fill="none" stroke="black" d="M226.178,-172.616C226.178,-178.616 220.178,-184.616 214.178,-184.616"/>
<polyline fill="none" stroke="black" points="214.178,-184.616 77.1778,-184.616 "/>
<path fill="none" stroke="black" d="M77.1778,-184.616C71.1778,-184.616 65.1778,-178.616 65.1778,-172.616"/>
<polyline fill="none" stroke="black" points="65.1778,-172.616 65.1778,-22.6158 "/>
<path fill="none" stroke="black" d="M65.1778,-22.6158C65.1778,-16.6158 71.1778,-10.6158 77.1778,-10.6158"/>
<text text-anchor="middle" x="145.678" y="-168.016" font-family="Times Roman,serif" font-size="14.00">BusinessesController</text>
<polyline fill="none" stroke="black" points="65.1778,-158.616 226.178,-158.616 "/>
<text text-anchor="start" x="73.1778" y="-142.016" font-family="Times Roman,serif" font-size="14.00">create</text>
<text text-anchor="start" x="73.1778" y="-124.016" font-family="Times Roman,serif" font-size="14.00">edit</text>
<text text-anchor="start" x="73.1778" y="-106.016" font-family="Times Roman,serif" font-size="14.00">new</text>
<text text-anchor="start" x="73.1778" y="-88.0158" font-family="Times Roman,serif" font-size="14.00">show</text>
<text text-anchor="start" x="73.1778" y="-70.0158" font-family="Times Roman,serif" font-size="14.00">update</text>
<polyline fill="none" stroke="black" points="65.1778,-60.6158 226.178,-60.6158 "/>
<polyline fill="none" stroke="black" points="65.1778,-36.6158 226.178,-36.6158 "/>
<text text-anchor="start" x="73.1778" y="-20.0158" font-family="Times Roman,serif" font-size="14.00">_layout</text>
</g>
<!-- ApplicationController&#45;&gt;BusinessesController -->
<g id="edge4" class="edge"><title>ApplicationController&#45;&gt;BusinessesController</title>
<path fill="none" stroke="black" d="M340.778,-291.721C306.663,-257.78 263.618,-214.954 226.645,-178.17"/>
</g>
<!-- BusinessWorkdaysController -->
<g id="node5" class="node"><title>BusinessWorkdaysController</title>
<polyline fill="none" stroke="black" points="41.2242,-490.309 231.224,-490.309 "/>
<path fill="none" stroke="black" d="M231.224,-490.309C237.224,-490.309 243.224,-496.309 243.224,-502.309"/>
<polyline fill="none" stroke="black" points="243.224,-502.309 243.224,-688.309 "/>
<path fill="none" stroke="black" d="M243.224,-688.309C243.224,-694.309 237.224,-700.309 231.224,-700.309"/>
<polyline fill="none" stroke="black" points="231.224,-700.309 41.2242,-700.309 "/>
<path fill="none" stroke="black" d="M41.2242,-700.309C35.2242,-700.309 29.2242,-694.309 29.2242,-688.309"/>
<polyline fill="none" stroke="black" points="29.2242,-688.309 29.2242,-502.309 "/>
<path fill="none" stroke="black" d="M29.2242,-502.309C29.2242,-496.309 35.2242,-490.309 41.2242,-490.309"/>
<text text-anchor="middle" x="136.224" y="-683.709" font-family="Times Roman,serif" font-size="14.00">BusinessWorkdaysController</text>
<polyline fill="none" stroke="black" points="29.2242,-674.309 243.224,-674.309 "/>
<text text-anchor="start" x="37.2242" y="-657.709" font-family="Times Roman,serif" font-size="14.00">create</text>
<text text-anchor="start" x="37.2242" y="-639.709" font-family="Times Roman,serif" font-size="14.00">destroy</text>
<text text-anchor="start" x="37.2242" y="-621.709" font-family="Times Roman,serif" font-size="14.00">edit</text>
<text text-anchor="start" x="37.2242" y="-603.709" font-family="Times Roman,serif" font-size="14.00">index</text>
<text text-anchor="start" x="37.2242" y="-585.709" font-family="Times Roman,serif" font-size="14.00">new</text>
<text text-anchor="start" x="37.2242" y="-567.709" font-family="Times Roman,serif" font-size="14.00">show</text>
<text text-anchor="start" x="37.2242" y="-549.709" font-family="Times Roman,serif" font-size="14.00">update</text>
<polyline fill="none" stroke="black" points="29.2242,-540.309 243.224,-540.309 "/>
<polyline fill="none" stroke="black" points="29.2242,-516.309 243.224,-516.309 "/>
<text text-anchor="start" x="37.2242" y="-499.709" font-family="Times Roman,serif" font-size="14.00">_layout</text>
</g>
<!-- ApplicationController&#45;&gt;BusinessWorkdaysController -->
<g id="edge6" class="edge"><title>ApplicationController&#45;&gt;BusinessWorkdaysController</title>
<path fill="none" stroke="black" d="M335.832,-412.15C307.921,-437.761 274.631,-468.307 243.313,-497.045"/>
</g>
<!-- EmployeesController -->
<g id="node6" class="node"><title>EmployeesController</title>
<polyline fill="none" stroke="black" points="595.017,-485.944 818.017,-485.944 "/>
<path fill="none" stroke="black" d="M818.017,-485.944C824.017,-485.944 830.017,-491.944 830.017,-497.944"/>
<polyline fill="none" stroke="black" points="830.017,-497.944 830.017,-701.944 "/>
<path fill="none" stroke="black" d="M830.017,-701.944C830.017,-707.944 824.017,-713.944 818.017,-713.944"/>
<polyline fill="none" stroke="black" points="818.017,-713.944 595.017,-713.944 "/>
<path fill="none" stroke="black" d="M595.017,-713.944C589.017,-713.944 583.017,-707.944 583.017,-701.944"/>
<polyline fill="none" stroke="black" points="583.017,-701.944 583.017,-497.944 "/>
<path fill="none" stroke="black" d="M583.017,-497.944C583.017,-491.944 589.017,-485.944 595.017,-485.944"/>
<text text-anchor="middle" x="706.517" y="-697.344" font-family="Times Roman,serif" font-size="14.00">EmployeesController</text>
<polyline fill="none" stroke="black" points="583.017,-687.944 830.017,-687.944 "/>
<text text-anchor="start" x="591.017" y="-671.344" font-family="Times Roman,serif" font-size="14.00">_one_time_conditions_valid_112?</text>
<text text-anchor="start" x="591.017" y="-653.344" font-family="Times Roman,serif" font-size="14.00">create</text>
<text text-anchor="start" x="591.017" y="-635.344" font-family="Times Roman,serif" font-size="14.00">destroy</text>
<text text-anchor="start" x="591.017" y="-617.344" font-family="Times Roman,serif" font-size="14.00">edit</text>
<text text-anchor="start" x="591.017" y="-599.344" font-family="Times Roman,serif" font-size="14.00">index</text>
<text text-anchor="start" x="591.017" y="-581.344" font-family="Times Roman,serif" font-size="14.00">new</text>
<text text-anchor="start" x="591.017" y="-563.344" font-family="Times Roman,serif" font-size="14.00">show</text>
<text text-anchor="start" x="591.017" y="-545.344" font-family="Times Roman,serif" font-size="14.00">update</text>
<polyline fill="none" stroke="black" points="583.017,-535.944 830.017,-535.944 "/>
<polyline fill="none" stroke="black" points="583.017,-511.944 830.017,-511.944 "/>
<text text-anchor="start" x="591.017" y="-495.344" font-family="Times Roman,serif" font-size="14.00">_layout</text>
</g>
<!-- ApplicationController&#45;&gt;EmployeesController -->
<g id="edge8" class="edge"><title>ApplicationController&#45;&gt;EmployeesController</title>
<path fill="none" stroke="black" d="M475.241,-412.026C507.519,-438.253 546.269,-469.738 582.741,-499.372"/>
</g>
<!-- PeriodsController -->
<g id="node7" class="node"><title>PeriodsController</title>
<polyline fill="none" stroke="black" points="365.979,-494.476 476.979,-494.476 "/>
<path fill="none" stroke="black" d="M476.979,-494.476C482.979,-494.476 488.979,-500.476 488.979,-506.476"/>
<polyline fill="none" stroke="black" points="488.979,-506.476 488.979,-692.476 "/>
<path fill="none" stroke="black" d="M488.979,-692.476C488.979,-698.476 482.979,-704.476 476.979,-704.476"/>
<polyline fill="none" stroke="black" points="476.979,-704.476 365.979,-704.476 "/>
<path fill="none" stroke="black" d="M365.979,-704.476C359.979,-704.476 353.979,-698.476 353.979,-692.476"/>
<polyline fill="none" stroke="black" points="353.979,-692.476 353.979,-506.476 "/>
<path fill="none" stroke="black" d="M353.979,-506.476C353.979,-500.476 359.979,-494.476 365.979,-494.476"/>
<text text-anchor="middle" x="421.479" y="-687.876" font-family="Times Roman,serif" font-size="14.00">PeriodsController</text>
<polyline fill="none" stroke="black" points="353.979,-678.476 488.979,-678.476 "/>
<text text-anchor="start" x="361.979" y="-661.876" font-family="Times Roman,serif" font-size="14.00">create</text>
<text text-anchor="start" x="361.979" y="-643.876" font-family="Times Roman,serif" font-size="14.00">destroy</text>
<text text-anchor="start" x="361.979" y="-625.876" font-family="Times Roman,serif" font-size="14.00">edit</text>
<text text-anchor="start" x="361.979" y="-607.876" font-family="Times Roman,serif" font-size="14.00">index</text>
<text text-anchor="start" x="361.979" y="-589.876" font-family="Times Roman,serif" font-size="14.00">new</text>
<text text-anchor="start" x="361.979" y="-571.876" font-family="Times Roman,serif" font-size="14.00">show</text>
<text text-anchor="start" x="361.979" y="-553.876" font-family="Times Roman,serif" font-size="14.00">update</text>
<polyline fill="none" stroke="black" points="353.979,-544.476 488.979,-544.476 "/>
<polyline fill="none" stroke="black" points="353.979,-520.476 488.979,-520.476 "/>
<text text-anchor="start" x="361.979" y="-503.876" font-family="Times Roman,serif" font-size="14.00">_layout</text>
</g>
<!-- ApplicationController&#45;&gt;PeriodsController -->
<g id="edge10" class="edge"><title>ApplicationController&#45;&gt;PeriodsController</title>
<path fill="none" stroke="black" d="M406.267,-412.229C408.278,-436.98 410.666,-466.383 412.948,-494.468"/>
</g>
<!-- PositionsController -->
<g id="node8" class="node"><title>PositionsController</title>
<polyline fill="none" stroke="black" points="13,-227.544 236,-227.544 "/>
<path fill="none" stroke="black" d="M236,-227.544C242,-227.544 248,-233.544 248,-239.544"/>
<polyline fill="none" stroke="black" points="248,-239.544 248,-443.544 "/>
<path fill="none" stroke="black" d="M248,-443.544C248,-449.544 242,-455.544 236,-455.544"/>
<polyline fill="none" stroke="black" points="236,-455.544 13,-455.544 "/>
<path fill="none" stroke="black" d="M13,-455.544C7,-455.544 1,-449.544 1,-443.544"/>
<polyline fill="none" stroke="black" points="1,-443.544 1,-239.544 "/>
<path fill="none" stroke="black" d="M1,-239.544C1,-233.544 7,-227.544 13,-227.544"/>
<text text-anchor="middle" x="124.5" y="-438.944" font-family="Times Roman,serif" font-size="14.00">PositionsController</text>
<polyline fill="none" stroke="black" points="1,-429.544 248,-429.544 "/>
<text text-anchor="start" x="9" y="-412.944" font-family="Times Roman,serif" font-size="14.00">_one_time_conditions_valid_138?</text>
<text text-anchor="start" x="9" y="-394.944" font-family="Times Roman,serif" font-size="14.00">create</text>
<text text-anchor="start" x="9" y="-376.944" font-family="Times Roman,serif" font-size="14.00">destroy</text>
<text text-anchor="start" x="9" y="-358.944" font-family="Times Roman,serif" font-size="14.00">edit</text>
<text text-anchor="start" x="9" y="-340.944" font-family="Times Roman,serif" font-size="14.00">index</text>
<text text-anchor="start" x="9" y="-322.944" font-family="Times Roman,serif" font-size="14.00">new</text>
<text text-anchor="start" x="9" y="-304.944" font-family="Times Roman,serif" font-size="14.00">show</text>
<text text-anchor="start" x="9" y="-286.944" font-family="Times Roman,serif" font-size="14.00">update</text>
<polyline fill="none" stroke="black" points="1,-277.544 248,-277.544 "/>
<polyline fill="none" stroke="black" points="1,-253.544 248,-253.544 "/>
<text text-anchor="start" x="9" y="-236.944" font-family="Times Roman,serif" font-size="14.00">_layout</text>
</g>
<!-- ApplicationController&#45;&gt;PositionsController -->
<g id="edge12" class="edge"><title>ApplicationController&#45;&gt;PositionsController</title>
<path fill="none" stroke="black" d="M286.76,-347.676C274.115,-347.198 261.196,-346.71 248.443,-346.228"/>
</g>
<!-- SchedulesController -->
<g id="node9" class="node"><title>SchedulesController</title>
<polyline fill="none" stroke="black" points="602.678,-1.5 825.678,-1.5 "/>
<path fill="none" stroke="black" d="M825.678,-1.5C831.678,-1.5 837.678,-7.5 837.678,-13.5"/>
<polyline fill="none" stroke="black" points="837.678,-13.5 837.678,-199.5 "/>
<path fill="none" stroke="black" d="M837.678,-199.5C837.678,-205.5 831.678,-211.5 825.678,-211.5"/>
<polyline fill="none" stroke="black" points="825.678,-211.5 602.678,-211.5 "/>
<path fill="none" stroke="black" d="M602.678,-211.5C596.678,-211.5 590.678,-205.5 590.678,-199.5"/>
<polyline fill="none" stroke="black" points="590.678,-199.5 590.678,-13.5 "/>
<path fill="none" stroke="black" d="M590.678,-13.5C590.678,-7.5 596.678,-1.5 602.678,-1.5"/>
<text text-anchor="middle" x="714.178" y="-194.9" font-family="Times Roman,serif" font-size="14.00">SchedulesController</text>
<polyline fill="none" stroke="black" points="590.678,-185.5 837.678,-185.5 "/>
<text text-anchor="start" x="598.678" y="-168.9" font-family="Times Roman,serif" font-size="14.00">_one_time_conditions_valid_144?</text>
<text text-anchor="start" x="598.678" y="-150.9" font-family="Times Roman,serif" font-size="14.00">calculate</text>
<text text-anchor="start" x="598.678" y="-132.9" font-family="Times Roman,serif" font-size="14.00">create</text>
<text text-anchor="start" x="598.678" y="-114.9" font-family="Times Roman,serif" font-size="14.00">index</text>
<text text-anchor="start" x="598.678" y="-96.9" font-family="Times Roman,serif" font-size="14.00">new</text>
<text text-anchor="start" x="598.678" y="-78.9" font-family="Times Roman,serif" font-size="14.00">show</text>
<text text-anchor="start" x="598.678" y="-60.9" font-family="Times Roman,serif" font-size="14.00">update</text>
<polyline fill="none" stroke="black" points="590.678,-51.5 837.678,-51.5 "/>
<polyline fill="none" stroke="black" points="590.678,-27.5 837.678,-27.5 "/>
<text text-anchor="start" x="598.678" y="-10.9" font-family="Times Roman,serif" font-size="14.00">_layout</text>
</g>
<!-- ApplicationController&#45;&gt;SchedulesController -->
<g id="edge14" class="edge"><title>ApplicationController&#45;&gt;SchedulesController</title>
<path fill="none" stroke="black" d="M477.895,-291.95C511.808,-265.333 552.57,-233.34 590.617,-203.478"/>
</g>
<!-- SessionsController -->
<g id="node10" class="node"><title>SessionsController</title>
<polyline fill="none" stroke="black" points="377.352,-35.9205 497.352,-35.9205 "/>
<path fill="none" stroke="black" d="M497.352,-35.9205C503.352,-35.9205 509.352,-41.9205 509.352,-47.9205"/>
<polyline fill="none" stroke="black" points="509.352,-47.9205 509.352,-161.921 "/>
<path fill="none" stroke="black" d="M509.352,-161.921C509.352,-167.921 503.352,-173.921 497.352,-173.921"/>
<polyline fill="none" stroke="black" points="497.352,-173.921 377.352,-173.921 "/>
<path fill="none" stroke="black" d="M377.352,-173.921C371.352,-173.921 365.352,-167.921 365.352,-161.921"/>
<polyline fill="none" stroke="black" points="365.352,-161.921 365.352,-47.9205 "/>
<path fill="none" stroke="black" d="M365.352,-47.9205C365.352,-41.9205 371.352,-35.9205 377.352,-35.9205"/>
<text text-anchor="middle" x="437.352" y="-157.321" font-family="Times Roman,serif" font-size="14.00">SessionsController</text>
<polyline fill="none" stroke="black" points="365.352,-147.921 509.352,-147.921 "/>
<text text-anchor="start" x="373.352" y="-131.321" font-family="Times Roman,serif" font-size="14.00">create</text>
<text text-anchor="start" x="373.352" y="-113.321" font-family="Times Roman,serif" font-size="14.00">destroy</text>
<text text-anchor="start" x="373.352" y="-95.3205" font-family="Times Roman,serif" font-size="14.00">new</text>
<polyline fill="none" stroke="black" points="365.352,-85.9205 509.352,-85.9205 "/>
<polyline fill="none" stroke="black" points="365.352,-61.9205 509.352,-61.9205 "/>
<text text-anchor="start" x="373.352" y="-45.3205" font-family="Times Roman,serif" font-size="14.00">_layout</text>
</g>
<!-- ApplicationController&#45;&gt;SessionsController -->
<g id="edge16" class="edge"><title>ApplicationController&#45;&gt;SessionsController</title>
<path fill="none" stroke="black" d="M410.13,-291.88C415.309,-256.31 421.889,-211.119 427.282,-174.077"/>
</g>
</g>
</svg>
