<?xml version="1.0" encoding="UTF-8" standalone="no"?>
<!DOCTYPE svg PUBLIC "-//W3C//DTD SVG 1.1//EN"
 "http://www.w3.org/Graphics/SVG/1.1/DTD/svg11.dtd">
<!-- Generated by graphviz version 2.26.3 (20100126.1600)
 -->
<!-- Title: models_diagram Pages: 1 -->
<svg width="480pt" height="324pt"
 viewBox="0.00 0.00 480.00 324.00" xmlns="http://www.w3.org/2000/svg" xmlns:xlink="http://www.w3.org/1999/xlink">
<g id="graph1" class="graph" transform="scale(1 1) rotate(0) translate(4 320)">
<title>models_diagram</title>
<polygon fill="white" stroke="white" points="-4,5 -4,-320 477,-320 477,5 -4,5"/>
<!-- _diagram_info -->
<g id="node1" class="node"><title>_diagram_info</title>
<text text-anchor="start" x="8" y="-299.8" font-family="Times Roman,serif" font-size="13.00">Models diagram</text>
<text text-anchor="start" x="8" y="-282.8" font-family="Times Roman,serif" font-size="13.00">Date: Feb 18 2013 &#45; 14:25</text>
<text text-anchor="start" x="8" y="-265.8" font-family="Times Roman,serif" font-size="13.00">Migration version: 20130218214544</text>
<text text-anchor="start" x="8" y="-248.8" font-family="Times Roman,serif" font-size="13.00">Generated by RailRoady 1.1.0</text>
<text text-anchor="start" x="8" y="-231.8" font-family="Times Roman,serif" font-size="13.00">http://railroady.prestonlee.com</text>
</g>
<!-- Business -->
<g id="node2" class="node"><title>Business</title>
<ellipse fill="none" stroke="black" cx="322" cy="-269" rx="53.9477" ry="18.3848"/>
<text text-anchor="middle" x="322" y="-265.4" font-family="Times Roman,serif" font-size="14.00">Business</text>
</g>
<!-- Employee -->
<g id="node3" class="node"><title>Employee</title>
<ellipse fill="none" stroke="black" cx="322" cy="-93" rx="58.1882" ry="18.3848"/>
<text text-anchor="middle" x="322" y="-89.4" font-family="Times Roman,serif" font-size="14.00">Employee</text>
</g>
<!-- Business&#45;&gt;Employee -->
<g id="edge2" class="edge"><title>Business&#45;&gt;Employee</title>
<path fill="none" stroke="#291517" d="M312.507,-242.74C304.861,-218.212 296.258,-180.592 302,-148 303.596,-138.938 306.566,-129.405 309.738,-120.867"/>
<ellipse fill="none" stroke="#291517" cx="313.803" cy="-246.726" rx="4.00001" ry="4.00001"/>
<polygon fill="#291517" stroke="#291517" points="309.808,-120.691 317.669,-113.045 311.646,-116.041 313.484,-111.391 313.484,-111.391 313.484,-111.391 311.646,-116.041 309.299,-109.737 309.808,-120.691 309.808,-120.691"/>
</g>
<!-- Position -->
<g id="node4" class="node"><title>Position</title>
<ellipse fill="none" stroke="black" cx="361" cy="-167" rx="50.2046" ry="18.3848"/>
<text text-anchor="middle" x="361" y="-163.4" font-family="Times Roman,serif" font-size="14.00">Position</text>
</g>
<!-- Business&#45;&gt;Position -->
<g id="edge4" class="edge"><title>Business&#45;&gt;Position</title>
<path fill="none" stroke="#d78d5a" d="M332.133,-242.499C337.682,-227.986 344.559,-210 350.208,-195.224"/>
<ellipse fill="none" stroke="#d78d5a" cx="330.582" cy="-246.555" rx="4.00001" ry="4.00001"/>
<polygon fill="#d78d5a" stroke="#d78d5a" points="350.321,-194.93 358.095,-187.197 352.106,-190.26 353.892,-185.59 353.892,-185.59 353.892,-185.59 352.106,-190.26 349.689,-183.983 350.321,-194.93 350.321,-194.93"/>
</g>
<!-- Schedule -->
<g id="node5" class="node"><title>Schedule</title>
<ellipse fill="none" stroke="black" cx="322" cy="-19" rx="55.8614" ry="18.3848"/>
<text text-anchor="middle" x="322" y="-15.4" font-family="Times Roman,serif" font-size="14.00">Schedule</text>
</g>
<!-- Employee&#45;&gt;Schedule -->
<g id="edge6" class="edge"><title>Employee&#45;&gt;Schedule</title>
<path fill="none" stroke="#4bda24" d="M322,-66.309C322,-60.3769 322,-54.0606 322,-48.0396"/>
<ellipse fill="none" stroke="#4bda24" cx="322" cy="-70.3267" rx="4" ry="4"/>
<polygon fill="#4bda24" stroke="#4bda24" points="322,-47.6674 326.5,-37.6673 322,-42.6674 322,-37.6674 322,-37.6674 322,-37.6674 322,-42.6674 317.5,-37.6674 322,-47.6674 322,-47.6674"/>
</g>
<!-- Position&#45;&gt;Employee -->
<g id="edge8" class="edge"><title>Position&#45;&gt;Employee</title>
<path fill="none" stroke="#85b7be" d="M347.522,-141.427C343.935,-134.621 340.047,-127.243 336.412,-120.346"/>
<ellipse fill="none" stroke="#85b7be" cx="349.495" cy="-145.169" rx="4.00002" ry="4.00002"/>
<polygon fill="#85b7be" stroke="#85b7be" points="336.327,-120.185 335.646,-109.24 333.996,-115.761 331.665,-111.338 331.665,-111.338 331.665,-111.338 333.996,-115.761 327.684,-113.436 336.327,-120.185 336.327,-120.185"/>
</g>
<!-- Week -->
<g id="node6" class="node"><title>Week</title>
<ellipse fill="none" stroke="black" cx="433" cy="-269" rx="39.0967" ry="18.3848"/>
<text text-anchor="middle" x="433" y="-265.4" font-family="Times Roman,serif" font-size="14.00">Week</text>
</g>
</g>
</svg>
