<?xml version="1.0" encoding="UTF-8" standalone="no"?>
<!DOCTYPE svg PUBLIC "-//W3C//DTD SVG 1.1//EN"
 "http://www.w3.org/Graphics/SVG/1.1/DTD/svg11.dtd">
<!-- Generated by graphviz version 2.26.3 (20100126.1600)
 -->
<!-- Title: models_diagram Pages: 1 -->
<svg width="642pt" height="1124pt"
 viewBox="0.00 0.00 642.00 1124.00" xmlns="http://www.w3.org/2000/svg" xmlns:xlink="http://www.w3.org/1999/xlink">
<g id="graph1" class="graph" transform="scale(1 1) rotate(0) translate(4 1120)">
<title>models_diagram</title>
<polygon fill="white" stroke="white" points="-4,5 -4,-1120 639,-1120 639,5 -4,5"/>
<!-- _diagram_info -->
<g id="node1" class="node"><title>_diagram_info</title>
<text text-anchor="start" x="8" y="-1038.8" font-family="Times Roman,serif" font-size="13.00">Models diagram</text>
<text text-anchor="start" x="8" y="-1021.8" font-family="Times Roman,serif" font-size="13.00">Date: Feb 18 2013 &#45; 14:24</text>
<text text-anchor="start" x="8" y="-1004.8" font-family="Times Roman,serif" font-size="13.00">Migration version: 20130218214544</text>
<text text-anchor="start" x="8" y="-987.8" font-family="Times Roman,serif" font-size="13.00">Generated by RailRoady 1.1.0</text>
<text text-anchor="start" x="8" y="-970.8" font-family="Times Roman,serif" font-size="13.00">http://railroady.prestonlee.com</text>
</g>
<!-- Business -->
<g id="node2" class="node"><title>Business</title>
<polyline fill="none" stroke="black" points="279.5,-901 434.5,-901 "/>
<path fill="none" stroke="black" d="M434.5,-901C440.5,-901 446.5,-907 446.5,-913"/>
<polyline fill="none" stroke="black" points="446.5,-913 446.5,-1103 "/>
<path fill="none" stroke="black" d="M446.5,-1103C446.5,-1109 440.5,-1115 434.5,-1115"/>
<polyline fill="none" stroke="black" points="434.5,-1115 279.5,-1115 "/>
<path fill="none" stroke="black" d="M279.5,-1115C273.5,-1115 267.5,-1109 267.5,-1103"/>
<polyline fill="none" stroke="black" points="267.5,-1103 267.5,-913 "/>
<path fill="none" stroke="black" d="M267.5,-913C267.5,-907 273.5,-901 279.5,-901"/>
<text text-anchor="middle" x="357" y="-1098.4" font-family="Times Roman,serif" font-size="14.00">Business</text>
<polyline fill="none" stroke="black" points="267.5,-1089 446.5,-1089 "/>
<text text-anchor="start" x="275.5" y="-1072.4" font-family="Times Roman,serif" font-size="14.00">id :integer</text>
<text text-anchor="start" x="275.5" y="-1054.4" font-family="Times Roman,serif" font-size="14.00">name :string</text>
<text text-anchor="start" x="275.5" y="-1036.4" font-family="Times Roman,serif" font-size="14.00">username :string</text>
<text text-anchor="start" x="275.5" y="-1018.4" font-family="Times Roman,serif" font-size="14.00">password_digest :string</text>
<text text-anchor="start" x="275.5" y="-1000.4" font-family="Times Roman,serif" font-size="14.00">created_at :datetime</text>
<text text-anchor="start" x="275.5" y="-982.4" font-family="Times Roman,serif" font-size="14.00">updated_at :datetime</text>
<text text-anchor="start" x="275.5" y="-964.4" font-family="Times Roman,serif" font-size="14.00">workhours :integer</text>
<text text-anchor="start" x="275.5" y="-946.4" font-family="Times Roman,serif" font-size="14.00">phone :integer</text>
<text text-anchor="start" x="275.5" y="-928.4" font-family="Times Roman,serif" font-size="14.00">adress :string</text>
<text text-anchor="start" x="275.5" y="-910.4" font-family="Times Roman,serif" font-size="14.00">subscription_id :integer</text>
</g>
<!-- Employee -->
<g id="node3" class="node"><title>Employee</title>
<polyline fill="none" stroke="black" points="286.5,-469 427.5,-469 "/>
<path fill="none" stroke="black" d="M427.5,-469C433.5,-469 439.5,-475 439.5,-481"/>
<polyline fill="none" stroke="black" points="439.5,-481 439.5,-671 "/>
<path fill="none" stroke="black" d="M439.5,-671C439.5,-677 433.5,-683 427.5,-683"/>
<polyline fill="none" stroke="black" points="427.5,-683 286.5,-683 "/>
<path fill="none" stroke="black" d="M286.5,-683C280.5,-683 274.5,-677 274.5,-671"/>
<polyline fill="none" stroke="black" points="274.5,-671 274.5,-481 "/>
<path fill="none" stroke="black" d="M274.5,-481C274.5,-475 280.5,-469 286.5,-469"/>
<text text-anchor="middle" x="357" y="-666.4" font-family="Times Roman,serif" font-size="14.00">Employee</text>
<polyline fill="none" stroke="black" points="274.5,-657 439.5,-657 "/>
<text text-anchor="start" x="282.5" y="-640.4" font-family="Times Roman,serif" font-size="14.00">id :integer</text>
<text text-anchor="start" x="282.5" y="-622.4" font-family="Times Roman,serif" font-size="14.00">name :string</text>
<text text-anchor="start" x="282.5" y="-604.4" font-family="Times Roman,serif" font-size="14.00">payrate :integer</text>
<text text-anchor="start" x="282.5" y="-586.4" font-family="Times Roman,serif" font-size="14.00">business_id :integer</text>
<text text-anchor="start" x="282.5" y="-568.4" font-family="Times Roman,serif" font-size="14.00">created_at :datetime</text>
<text text-anchor="start" x="282.5" y="-550.4" font-family="Times Roman,serif" font-size="14.00">updated_at :datetime</text>
<text text-anchor="start" x="282.5" y="-532.4" font-family="Times Roman,serif" font-size="14.00">rank :integer</text>
<text text-anchor="start" x="282.5" y="-514.4" font-family="Times Roman,serif" font-size="14.00">workday :integer</text>
<text text-anchor="start" x="282.5" y="-496.4" font-family="Times Roman,serif" font-size="14.00">position_id :integer</text>
<text text-anchor="start" x="282.5" y="-478.4" font-family="Times Roman,serif" font-size="14.00">email :string</text>
</g>
<!-- Business&#45;&gt;Employee -->
<g id="edge2" class="edge"><title>Business&#45;&gt;Employee</title>
<path fill="none" stroke="#bb7279" d="M325.554,-892.709C323.721,-883.051 322.156,-873.391 321,-864 313.18,-800.48 313.18,-783.52 321,-720 322.087,-711.172 323.535,-702.107 325.227,-693.029"/>
<ellipse fill="none" stroke="#bb7279" cx="326.379" cy="-896.891" rx="4.00001" ry="4.00001"/>
<polygon fill="#bb7279" stroke="#bb7279" points="325.233,-692.998 331.57,-684.049 326.193,-688.091 327.154,-683.185 327.154,-683.185 327.154,-683.185 326.193,-688.091 322.738,-682.32 325.233,-692.998 325.233,-692.998"/>
</g>
<!-- Position -->
<g id="node4" class="node"><title>Position</title>
<polyline fill="none" stroke="black" points="341.5,-721 482.5,-721 "/>
<path fill="none" stroke="black" d="M482.5,-721C488.5,-721 494.5,-727 494.5,-733"/>
<polyline fill="none" stroke="black" points="494.5,-733 494.5,-851 "/>
<path fill="none" stroke="black" d="M494.5,-851C494.5,-857 488.5,-863 482.5,-863"/>
<polyline fill="none" stroke="black" points="482.5,-863 341.5,-863 "/>
<path fill="none" stroke="black" d="M341.5,-863C335.5,-863 329.5,-857 329.5,-851"/>
<polyline fill="none" stroke="black" points="329.5,-851 329.5,-733 "/>
<path fill="none" stroke="black" d="M329.5,-733C329.5,-727 335.5,-721 341.5,-721"/>
<text text-anchor="middle" x="412" y="-846.4" font-family="Times Roman,serif" font-size="14.00">Position</text>
<polyline fill="none" stroke="black" points="329.5,-837 494.5,-837 "/>
<text text-anchor="start" x="337.5" y="-820.4" font-family="Times Roman,serif" font-size="14.00">id :integer</text>
<text text-anchor="start" x="337.5" y="-802.4" font-family="Times Roman,serif" font-size="14.00">pos :string</text>
<text text-anchor="start" x="337.5" y="-784.4" font-family="Times Roman,serif" font-size="14.00">pos_id :integer</text>
<text text-anchor="start" x="337.5" y="-766.4" font-family="Times Roman,serif" font-size="14.00">business_id :integer</text>
<text text-anchor="start" x="337.5" y="-748.4" font-family="Times Roman,serif" font-size="14.00">created_at :datetime</text>
<text text-anchor="start" x="337.5" y="-730.4" font-family="Times Roman,serif" font-size="14.00">updated_at :datetime</text>
</g>
<!-- Business&#45;&gt;Position -->
<g id="edge4" class="edge"><title>Business&#45;&gt;Position</title>
<path fill="none" stroke="#78491b" d="M386.249,-893.131C387.955,-886.43 389.652,-879.765 391.314,-873.239"/>
<ellipse fill="none" stroke="#78491b" cx="385.245" cy="-897.073" rx="4.00001" ry="4.00001"/>
<polygon fill="#78491b" stroke="#78491b" points="391.425,-872.804 398.253,-864.223 392.659,-867.958 393.893,-863.113 393.893,-863.113 393.893,-863.113 392.659,-867.958 389.532,-862.002 391.425,-872.804 391.425,-872.804"/>
</g>
<!-- Schedule -->
<g id="node5" class="node"><title>Schedule</title>
<polyline fill="none" stroke="black" points="278,-1 436,-1 "/>
<path fill="none" stroke="black" d="M436,-1C442,-1 448,-7 448,-13"/>
<polyline fill="none" stroke="black" points="448,-13 448,-419 "/>
<path fill="none" stroke="black" d="M448,-419C448,-425 442,-431 436,-431"/>
<polyline fill="none" stroke="black" points="436,-431 278,-431 "/>
<path fill="none" stroke="black" d="M278,-431C272,-431 266,-425 266,-419"/>
<polyline fill="none" stroke="black" points="266,-419 266,-13 "/>
<path fill="none" stroke="black" d="M266,-13C266,-7 272,-1 278,-1"/>
<text text-anchor="middle" x="357" y="-414.4" font-family="Times Roman,serif" font-size="14.00">Schedule</text>
<polyline fill="none" stroke="black" points="266,-405 448,-405 "/>
<text text-anchor="start" x="274" y="-388.4" font-family="Times Roman,serif" font-size="14.00">id :integer</text>
<text text-anchor="start" x="274" y="-370.4" font-family="Times Roman,serif" font-size="14.00">employee_id :integer</text>
<text text-anchor="start" x="274" y="-352.4" font-family="Times Roman,serif" font-size="14.00">week_id :integer</text>
<text text-anchor="start" x="274" y="-334.4" font-family="Times Roman,serif" font-size="14.00">rate_this_week :integer</text>
<text text-anchor="start" x="274" y="-316.4" font-family="Times Roman,serif" font-size="14.00">total_hours :integer</text>
<text text-anchor="start" x="274" y="-298.4" font-family="Times Roman,serif" font-size="14.00">total_pay :integer</text>
<text text-anchor="start" x="274" y="-280.4" font-family="Times Roman,serif" font-size="14.00">MonStart :time</text>
<text text-anchor="start" x="274" y="-262.4" font-family="Times Roman,serif" font-size="14.00">MonEnd :time</text>
<text text-anchor="start" x="274" y="-244.4" font-family="Times Roman,serif" font-size="14.00">TueStart :time</text>
<text text-anchor="start" x="274" y="-226.4" font-family="Times Roman,serif" font-size="14.00">TueEnd :time</text>
<text text-anchor="start" x="274" y="-208.4" font-family="Times Roman,serif" font-size="14.00">WedStart :time</text>
<text text-anchor="start" x="274" y="-190.4" font-family="Times Roman,serif" font-size="14.00">WedEnd :time</text>
<text text-anchor="start" x="274" y="-172.4" font-family="Times Roman,serif" font-size="14.00">ThuStart :time</text>
<text text-anchor="start" x="274" y="-154.4" font-family="Times Roman,serif" font-size="14.00">ThuEnd :time</text>
<text text-anchor="start" x="274" y="-136.4" font-family="Times Roman,serif" font-size="14.00">FriStart :time</text>
<text text-anchor="start" x="274" y="-118.4" font-family="Times Roman,serif" font-size="14.00">FriEnd :time</text>
<text text-anchor="start" x="274" y="-100.4" font-family="Times Roman,serif" font-size="14.00">SatStart :time</text>
<text text-anchor="start" x="274" y="-82.4" font-family="Times Roman,serif" font-size="14.00">SatEnd :time</text>
<text text-anchor="start" x="274" y="-64.4" font-family="Times Roman,serif" font-size="14.00">SunStart :time</text>
<text text-anchor="start" x="274" y="-46.4" font-family="Times Roman,serif" font-size="14.00">SunEnd :time</text>
<text text-anchor="start" x="274" y="-28.4" font-family="Times Roman,serif" font-size="14.00">created_at :datetime</text>
<text text-anchor="start" x="274" y="-10.4" font-family="Times Roman,serif" font-size="14.00">updated_at :datetime</text>
</g>
<!-- Employee&#45;&gt;Schedule -->
<g id="edge6" class="edge"><title>Employee&#45;&gt;Schedule</title>
<path fill="none" stroke="#df2665" d="M357,-460.933C357,-454.604 357,-448.151 357,-441.613"/>
<ellipse fill="none" stroke="#df2665" cx="357" cy="-464.963" rx="4" ry="4"/>
<polygon fill="#df2665" stroke="#df2665" points="357,-441.273 361.5,-431.273 357,-436.273 357,-431.273 357,-431.273 357,-431.273 357,-436.273 352.5,-431.273 357,-441.273 357,-441.273"/>
</g>
<!-- Position&#45;&gt;Employee -->
<g id="edge8" class="edge"><title>Position&#45;&gt;Employee</title>
<path fill="none" stroke="#e7d8ca" d="M391.931,-713.183C390.251,-706.587 388.532,-699.834 386.8,-693.033"/>
<ellipse fill="none" stroke="#e7d8ca" cx="392.928" cy="-717.098" rx="4.00001" ry="4.00001"/>
<polygon fill="#e7d8ca" stroke="#e7d8ca" points="386.725,-692.738 388.618,-681.937 385.491,-687.893 384.258,-683.048 384.258,-683.048 384.258,-683.048 385.491,-687.893 379.897,-684.158 386.725,-692.738 386.725,-692.738"/>
</g>
<!-- Week -->
<g id="node6" class="node"><title>Week</title>
<polyline fill="none" stroke="black" points="475.5,-928 622.5,-928 "/>
<path fill="none" stroke="black" d="M622.5,-928C628.5,-928 634.5,-934 634.5,-940"/>
<polyline fill="none" stroke="black" points="634.5,-940 634.5,-1076 "/>
<path fill="none" stroke="black" d="M634.5,-1076C634.5,-1082 628.5,-1088 622.5,-1088"/>
<polyline fill="none" stroke="black" points="622.5,-1088 475.5,-1088 "/>
<path fill="none" stroke="black" d="M475.5,-1088C469.5,-1088 463.5,-1082 463.5,-1076"/>
<polyline fill="none" stroke="black" points="463.5,-1076 463.5,-940 "/>
<path fill="none" stroke="black" d="M463.5,-940C463.5,-934 469.5,-928 475.5,-928"/>
<text text-anchor="middle" x="549" y="-1071.4" font-family="Times Roman,serif" font-size="14.00">Week</text>
<polyline fill="none" stroke="black" points="463.5,-1062 634.5,-1062 "/>
<text text-anchor="start" x="471.5" y="-1045.4" font-family="Times Roman,serif" font-size="14.00">id :integer</text>
<text text-anchor="start" x="471.5" y="-1027.4" font-family="Times Roman,serif" font-size="14.00">business_id :integer</text>
<text text-anchor="start" x="471.5" y="-1009.4" font-family="Times Roman,serif" font-size="14.00">start_date :date</text>
<text text-anchor="start" x="471.5" y="-991.4" font-family="Times Roman,serif" font-size="14.00">payroll_total :integer</text>
<text text-anchor="start" x="471.5" y="-973.4" font-family="Times Roman,serif" font-size="14.00">week_of_year :integer</text>
<text text-anchor="start" x="471.5" y="-955.4" font-family="Times Roman,serif" font-size="14.00">created_at :datetime</text>
<text text-anchor="start" x="471.5" y="-937.4" font-family="Times Roman,serif" font-size="14.00">updated_at :datetime</text>
</g>
</g>
</svg>
