<?xml version="1.0" encoding="UTF-8" standalone="no"?>
<!DOCTYPE svg PUBLIC "-//W3C//DTD SVG 1.1//EN"
 "http://www.w3.org/Graphics/SVG/1.1/DTD/svg11.dtd">
<!-- Generated by graphviz version 2.26.3 (20100126.1600)
 -->
<!-- Title: models_diagram Pages: 1 -->
<svg width="839pt" height="1286pt"
 viewBox="0.00 0.00 839.00 1286.00" xmlns="http://www.w3.org/2000/svg" xmlns:xlink="http://www.w3.org/1999/xlink">
<g id="graph1" class="graph" transform="scale(1 1) rotate(0) translate(4 1282)">
<title>models_diagram</title>
<polygon fill="white" stroke="white" points="-4,5 -4,-1282 836,-1282 836,5 -4,5"/>
<!-- _diagram_info -->
<g id="node1" class="node"><title>_diagram_info</title>
<text text-anchor="start" x="8" y="-1200.8" font-family="Times Roman,serif" font-size="13.00">Models diagram</text>
<text text-anchor="start" x="8" y="-1183.8" font-family="Times Roman,serif" font-size="13.00">Date: Feb 20 2013 &#45; 16:27</text>
<text text-anchor="start" x="8" y="-1166.8" font-family="Times Roman,serif" font-size="13.00">Migration version: 20130221002545</text>
<text text-anchor="start" x="8" y="-1149.8" font-family="Times Roman,serif" font-size="13.00">Generated by RailRoady 1.1.0</text>
<text text-anchor="start" x="8" y="-1132.8" font-family="Times Roman,serif" font-size="13.00">http://railroady.prestonlee.com</text>
</g>
<!-- ApprPosition -->
<g id="node2" class="node"><title>ApprPosition</title>
<polyline fill="none" stroke="black" points="629.5,-487 770.5,-487 "/>
<path fill="none" stroke="black" d="M770.5,-487C776.5,-487 782.5,-493 782.5,-499"/>
<polyline fill="none" stroke="black" points="782.5,-499 782.5,-725 "/>
<path fill="none" stroke="black" d="M782.5,-725C782.5,-731 776.5,-737 770.5,-737"/>
<polyline fill="none" stroke="black" points="770.5,-737 629.5,-737 "/>
<path fill="none" stroke="black" d="M629.5,-737C623.5,-737 617.5,-731 617.5,-725"/>
<polyline fill="none" stroke="black" points="617.5,-725 617.5,-499 "/>
<path fill="none" stroke="black" d="M617.5,-499C617.5,-493 623.5,-487 629.5,-487"/>
<text text-anchor="middle" x="700" y="-720.4" font-family="Times Roman,serif" font-size="14.00">ApprPosition</text>
<polyline fill="none" stroke="black" points="617.5,-711 782.5,-711 "/>
<text text-anchor="start" x="625.5" y="-694.4" font-family="Times Roman,serif" font-size="14.00">id :integer</text>
<text text-anchor="start" x="625.5" y="-676.4" font-family="Times Roman,serif" font-size="14.00">position_id :integer</text>
<text text-anchor="start" x="625.5" y="-658.4" font-family="Times Roman,serif" font-size="14.00">Mon :integer</text>
<text text-anchor="start" x="625.5" y="-640.4" font-family="Times Roman,serif" font-size="14.00">Tue :integer</text>
<text text-anchor="start" x="625.5" y="-622.4" font-family="Times Roman,serif" font-size="14.00">Wed :integer</text>
<text text-anchor="start" x="625.5" y="-604.4" font-family="Times Roman,serif" font-size="14.00">Thu :integer</text>
<text text-anchor="start" x="625.5" y="-586.4" font-family="Times Roman,serif" font-size="14.00">Fri :integer</text>
<text text-anchor="start" x="625.5" y="-568.4" font-family="Times Roman,serif" font-size="14.00">Sat :integer</text>
<text text-anchor="start" x="625.5" y="-550.4" font-family="Times Roman,serif" font-size="14.00">Sun :integer</text>
<text text-anchor="start" x="625.5" y="-532.4" font-family="Times Roman,serif" font-size="14.00">created_at :datetime</text>
<text text-anchor="start" x="625.5" y="-514.4" font-family="Times Roman,serif" font-size="14.00">updated_at :datetime</text>
<text text-anchor="start" x="625.5" y="-496.4" font-family="Times Roman,serif" font-size="14.00">period_id :string</text>
</g>
<!-- Business -->
<g id="node3" class="node"><title>Business</title>
<polyline fill="none" stroke="black" points="476.5,-1063 631.5,-1063 "/>
<path fill="none" stroke="black" d="M631.5,-1063C637.5,-1063 643.5,-1069 643.5,-1075"/>
<polyline fill="none" stroke="black" points="643.5,-1075 643.5,-1265 "/>
<path fill="none" stroke="black" d="M643.5,-1265C643.5,-1271 637.5,-1277 631.5,-1277"/>
<polyline fill="none" stroke="black" points="631.5,-1277 476.5,-1277 "/>
<path fill="none" stroke="black" d="M476.5,-1277C470.5,-1277 464.5,-1271 464.5,-1265"/>
<polyline fill="none" stroke="black" points="464.5,-1265 464.5,-1075 "/>
<path fill="none" stroke="black" d="M464.5,-1075C464.5,-1069 470.5,-1063 476.5,-1063"/>
<text text-anchor="middle" x="554" y="-1260.4" font-family="Times Roman,serif" font-size="14.00">Business</text>
<polyline fill="none" stroke="black" points="464.5,-1251 643.5,-1251 "/>
<text text-anchor="start" x="472.5" y="-1234.4" font-family="Times Roman,serif" font-size="14.00">id :integer</text>
<text text-anchor="start" x="472.5" y="-1216.4" font-family="Times Roman,serif" font-size="14.00">name :string</text>
<text text-anchor="start" x="472.5" y="-1198.4" font-family="Times Roman,serif" font-size="14.00">username :string</text>
<text text-anchor="start" x="472.5" y="-1180.4" font-family="Times Roman,serif" font-size="14.00">password_digest :string</text>
<text text-anchor="start" x="472.5" y="-1162.4" font-family="Times Roman,serif" font-size="14.00">created_at :datetime</text>
<text text-anchor="start" x="472.5" y="-1144.4" font-family="Times Roman,serif" font-size="14.00">updated_at :datetime</text>
<text text-anchor="start" x="472.5" y="-1126.4" font-family="Times Roman,serif" font-size="14.00">work_sch_id :integer</text>
<text text-anchor="start" x="472.5" y="-1108.4" font-family="Times Roman,serif" font-size="14.00">phone :integer</text>
<text text-anchor="start" x="472.5" y="-1090.4" font-family="Times Roman,serif" font-size="14.00">adress :string</text>
<text text-anchor="start" x="472.5" y="-1072.4" font-family="Times Roman,serif" font-size="14.00">subscription_id :integer</text>
</g>
<!-- BusinessWorkday -->
<g id="node4" class="node"><title>BusinessWorkday</title>
<polyline fill="none" stroke="black" points="373.5,-775 514.5,-775 "/>
<path fill="none" stroke="black" d="M514.5,-775C520.5,-775 526.5,-781 526.5,-787"/>
<polyline fill="none" stroke="black" points="526.5,-787 526.5,-1013 "/>
<path fill="none" stroke="black" d="M526.5,-1013C526.5,-1019 520.5,-1025 514.5,-1025"/>
<polyline fill="none" stroke="black" points="514.5,-1025 373.5,-1025 "/>
<path fill="none" stroke="black" d="M373.5,-1025C367.5,-1025 361.5,-1019 361.5,-1013"/>
<polyline fill="none" stroke="black" points="361.5,-1013 361.5,-787 "/>
<path fill="none" stroke="black" d="M361.5,-787C361.5,-781 367.5,-775 373.5,-775"/>
<text text-anchor="middle" x="444" y="-1008.4" font-family="Times Roman,serif" font-size="14.00">BusinessWorkday</text>
<polyline fill="none" stroke="black" points="361.5,-999 526.5,-999 "/>
<text text-anchor="start" x="369.5" y="-982.4" font-family="Times Roman,serif" font-size="14.00">id :integer</text>
<text text-anchor="start" x="369.5" y="-964.4" font-family="Times Roman,serif" font-size="14.00">business_id :integer</text>
<text text-anchor="start" x="369.5" y="-946.4" font-family="Times Roman,serif" font-size="14.00">period_id :integer</text>
<text text-anchor="start" x="369.5" y="-928.4" font-family="Times Roman,serif" font-size="14.00">Mon :integer</text>
<text text-anchor="start" x="369.5" y="-910.4" font-family="Times Roman,serif" font-size="14.00">Tue :integer</text>
<text text-anchor="start" x="369.5" y="-892.4" font-family="Times Roman,serif" font-size="14.00">Wed :integer</text>
<text text-anchor="start" x="369.5" y="-874.4" font-family="Times Roman,serif" font-size="14.00">Thu :integer</text>
<text text-anchor="start" x="369.5" y="-856.4" font-family="Times Roman,serif" font-size="14.00">Fri :integer</text>
<text text-anchor="start" x="369.5" y="-838.4" font-family="Times Roman,serif" font-size="14.00">Sat :integer</text>
<text text-anchor="start" x="369.5" y="-820.4" font-family="Times Roman,serif" font-size="14.00">Sun :integer</text>
<text text-anchor="start" x="369.5" y="-802.4" font-family="Times Roman,serif" font-size="14.00">created_at :datetime</text>
<text text-anchor="start" x="369.5" y="-784.4" font-family="Times Roman,serif" font-size="14.00">updated_at :datetime</text>
</g>
<!-- Business&#45;&gt;BusinessWorkday -->
<g id="edge6" class="edge"><title>Business&#45;&gt;BusinessWorkday</title>
<path fill="none" stroke="#8f3476" d="M507.282,-1055.33C504.496,-1048.49 501.681,-1041.58 498.866,-1034.67"/>
<ellipse fill="none" stroke="#8f3476" cx="508.858" cy="-1059.2" rx="4.00001" ry="4.00001"/>
<polygon fill="#8f3476" stroke="#8f3476" points="498.804,-1034.52 499.199,-1023.56 496.918,-1029.89 495.031,-1025.26 495.031,-1025.26 495.031,-1025.26 496.918,-1029.89 490.864,-1026.96 498.804,-1034.52 498.804,-1034.52"/>
</g>
<!-- Employee -->
<g id="node5" class="node"><title>Employee</title>
<polyline fill="none" stroke="black" points="447.5,-505 588.5,-505 "/>
<path fill="none" stroke="black" d="M588.5,-505C594.5,-505 600.5,-511 600.5,-517"/>
<polyline fill="none" stroke="black" points="600.5,-517 600.5,-707 "/>
<path fill="none" stroke="black" d="M600.5,-707C600.5,-713 594.5,-719 588.5,-719"/>
<polyline fill="none" stroke="black" points="588.5,-719 447.5,-719 "/>
<path fill="none" stroke="black" d="M447.5,-719C441.5,-719 435.5,-713 435.5,-707"/>
<polyline fill="none" stroke="black" points="435.5,-707 435.5,-517 "/>
<path fill="none" stroke="black" d="M435.5,-517C435.5,-511 441.5,-505 447.5,-505"/>
<text text-anchor="middle" x="518" y="-702.4" font-family="Times Roman,serif" font-size="14.00">Employee</text>
<polyline fill="none" stroke="black" points="435.5,-693 600.5,-693 "/>
<text text-anchor="start" x="443.5" y="-676.4" font-family="Times Roman,serif" font-size="14.00">id :integer</text>
<text text-anchor="start" x="443.5" y="-658.4" font-family="Times Roman,serif" font-size="14.00">name :string</text>
<text text-anchor="start" x="443.5" y="-640.4" font-family="Times Roman,serif" font-size="14.00">payrate :integer</text>
<text text-anchor="start" x="443.5" y="-622.4" font-family="Times Roman,serif" font-size="14.00">business_id :integer</text>
<text text-anchor="start" x="443.5" y="-604.4" font-family="Times Roman,serif" font-size="14.00">created_at :datetime</text>
<text text-anchor="start" x="443.5" y="-586.4" font-family="Times Roman,serif" font-size="14.00">updated_at :datetime</text>
<text text-anchor="start" x="443.5" y="-568.4" font-family="Times Roman,serif" font-size="14.00">rank :integer</text>
<text text-anchor="start" x="443.5" y="-550.4" font-family="Times Roman,serif" font-size="14.00">workhours :integer</text>
<text text-anchor="start" x="443.5" y="-532.4" font-family="Times Roman,serif" font-size="14.00">position_id :integer</text>
<text text-anchor="start" x="443.5" y="-514.4" font-family="Times Roman,serif" font-size="14.00">email :string</text>
</g>
<!-- Business&#45;&gt;Employee -->
<g id="edge2" class="edge"><title>Business&#45;&gt;Employee</title>
<path fill="none" stroke="#544b01" d="M550.192,-1054.71C547.157,-975.644 542.211,-868.383 535,-774 533.897,-759.567 532.556,-744.428 531.115,-729.444"/>
<ellipse fill="none" stroke="#544b01" cx="550.345" cy="-1058.75" rx="4" ry="4"/>
<polygon fill="#544b01" stroke="#544b01" points="531.078,-729.058 534.583,-718.667 530.591,-724.082 530.104,-719.105 530.104,-719.105 530.104,-719.105 530.591,-724.082 525.625,-719.544 531.078,-729.058 531.078,-729.058"/>
</g>
<!-- Position -->
<g id="node7" class="node"><title>Position</title>
<polyline fill="none" stroke="black" points="593.5,-829 734.5,-829 "/>
<path fill="none" stroke="black" d="M734.5,-829C740.5,-829 746.5,-835 746.5,-841"/>
<polyline fill="none" stroke="black" points="746.5,-841 746.5,-959 "/>
<path fill="none" stroke="black" d="M746.5,-959C746.5,-965 740.5,-971 734.5,-971"/>
<polyline fill="none" stroke="black" points="734.5,-971 593.5,-971 "/>
<path fill="none" stroke="black" d="M593.5,-971C587.5,-971 581.5,-965 581.5,-959"/>
<polyline fill="none" stroke="black" points="581.5,-959 581.5,-841 "/>
<path fill="none" stroke="black" d="M581.5,-841C581.5,-835 587.5,-829 593.5,-829"/>
<text text-anchor="middle" x="664" y="-954.4" font-family="Times Roman,serif" font-size="14.00">Position</text>
<polyline fill="none" stroke="black" points="581.5,-945 746.5,-945 "/>
<text text-anchor="start" x="589.5" y="-928.4" font-family="Times Roman,serif" font-size="14.00">id :integer</text>
<text text-anchor="start" x="589.5" y="-910.4" font-family="Times Roman,serif" font-size="14.00">pos :string</text>
<text text-anchor="start" x="589.5" y="-892.4" font-family="Times Roman,serif" font-size="14.00">pos_id :integer</text>
<text text-anchor="start" x="589.5" y="-874.4" font-family="Times Roman,serif" font-size="14.00">business_id :integer</text>
<text text-anchor="start" x="589.5" y="-856.4" font-family="Times Roman,serif" font-size="14.00">created_at :datetime</text>
<text text-anchor="start" x="589.5" y="-838.4" font-family="Times Roman,serif" font-size="14.00">updated_at :datetime</text>
</g>
<!-- Business&#45;&gt;Position -->
<g id="edge4" class="edge"><title>Business&#45;&gt;Position</title>
<path fill="none" stroke="#40b369" d="M600.733,-1055.29C610.942,-1030.23 621.539,-1004.22 631.075,-980.816"/>
<ellipse fill="none" stroke="#40b369" cx="599.142" cy="-1059.2" rx="4.00001" ry="4.00001"/>
<polygon fill="#40b369" stroke="#40b369" points="631.179,-980.56 639.12,-972.997 633.066,-975.929 634.952,-971.299 634.952,-971.299 634.952,-971.299 633.066,-975.929 630.785,-969.601 631.179,-980.56 631.179,-980.56"/>
</g>
<!-- Schedule -->
<g id="node8" class="node"><title>Schedule</title>
<polyline fill="none" stroke="black" points="347,-1 505,-1 "/>
<path fill="none" stroke="black" d="M505,-1C511,-1 517,-7 517,-13"/>
<polyline fill="none" stroke="black" points="517,-13 517,-437 "/>
<path fill="none" stroke="black" d="M517,-437C517,-443 511,-449 505,-449"/>
<polyline fill="none" stroke="black" points="505,-449 347,-449 "/>
<path fill="none" stroke="black" d="M347,-449C341,-449 335,-443 335,-437"/>
<polyline fill="none" stroke="black" points="335,-437 335,-13 "/>
<path fill="none" stroke="black" d="M335,-13C335,-7 341,-1 347,-1"/>
<text text-anchor="middle" x="426" y="-432.4" font-family="Times Roman,serif" font-size="14.00">Schedule</text>
<polyline fill="none" stroke="black" points="335,-423 517,-423 "/>
<text text-anchor="start" x="343" y="-406.4" font-family="Times Roman,serif" font-size="14.00">id :integer</text>
<text text-anchor="start" x="343" y="-388.4" font-family="Times Roman,serif" font-size="14.00">employee_id :integer</text>
<text text-anchor="start" x="343" y="-370.4" font-family="Times Roman,serif" font-size="14.00">week_id :integer</text>
<text text-anchor="start" x="343" y="-352.4" font-family="Times Roman,serif" font-size="14.00">rate_this_week :integer</text>
<text text-anchor="start" x="343" y="-334.4" font-family="Times Roman,serif" font-size="14.00">total_hours :integer</text>
<text text-anchor="start" x="343" y="-316.4" font-family="Times Roman,serif" font-size="14.00">total_pay :integer</text>
<text text-anchor="start" x="343" y="-298.4" font-family="Times Roman,serif" font-size="14.00">MonStart :time</text>
<text text-anchor="start" x="343" y="-280.4" font-family="Times Roman,serif" font-size="14.00">MonEnd :time</text>
<text text-anchor="start" x="343" y="-262.4" font-family="Times Roman,serif" font-size="14.00">TueStart :time</text>
<text text-anchor="start" x="343" y="-244.4" font-family="Times Roman,serif" font-size="14.00">TueEnd :time</text>
<text text-anchor="start" x="343" y="-226.4" font-family="Times Roman,serif" font-size="14.00">WedStart :time</text>
<text text-anchor="start" x="343" y="-208.4" font-family="Times Roman,serif" font-size="14.00">WedEnd :time</text>
<text text-anchor="start" x="343" y="-190.4" font-family="Times Roman,serif" font-size="14.00">ThuStart :time</text>
<text text-anchor="start" x="343" y="-172.4" font-family="Times Roman,serif" font-size="14.00">ThuEnd :time</text>
<text text-anchor="start" x="343" y="-154.4" font-family="Times Roman,serif" font-size="14.00">FriStart :time</text>
<text text-anchor="start" x="343" y="-136.4" font-family="Times Roman,serif" font-size="14.00">FriEnd :time</text>
<text text-anchor="start" x="343" y="-118.4" font-family="Times Roman,serif" font-size="14.00">SatStart :time</text>
<text text-anchor="start" x="343" y="-100.4" font-family="Times Roman,serif" font-size="14.00">SatEnd :time</text>
<text text-anchor="start" x="343" y="-82.4" font-family="Times Roman,serif" font-size="14.00">SunStart :time</text>
<text text-anchor="start" x="343" y="-64.4" font-family="Times Roman,serif" font-size="14.00">SunEnd :time</text>
<text text-anchor="start" x="343" y="-46.4" font-family="Times Roman,serif" font-size="14.00">created_at :datetime</text>
<text text-anchor="start" x="343" y="-28.4" font-family="Times Roman,serif" font-size="14.00">updated_at :datetime</text>
<text text-anchor="start" x="343" y="-10.4" font-family="Times Roman,serif" font-size="14.00">period_id :string</text>
</g>
<!-- Employee&#45;&gt;Schedule -->
<g id="edge8" class="edge"><title>Employee&#45;&gt;Schedule</title>
<path fill="none" stroke="#4f453e" d="M490.667,-497.022C487.761,-484.797 484.735,-472.068 481.648,-459.084"/>
<ellipse fill="none" stroke="#4f453e" cx="491.631" cy="-501.078" rx="4.00001" ry="4.00001"/>
<polygon fill="#4f453e" stroke="#4f453e" points="481.59,-458.839 483.655,-448.069 480.433,-453.974 479.277,-449.11 479.277,-449.11 479.277,-449.11 480.433,-453.974 474.899,-450.151 481.59,-458.839 481.59,-458.839"/>
</g>
<!-- Period -->
<g id="node6" class="node"><title>Period</title>
<polyline fill="none" stroke="black" points="279.5,-1108 420.5,-1108 "/>
<path fill="none" stroke="black" d="M420.5,-1108C426.5,-1108 432.5,-1114 432.5,-1120"/>
<polyline fill="none" stroke="black" points="432.5,-1120 432.5,-1220 "/>
<path fill="none" stroke="black" d="M432.5,-1220C432.5,-1226 426.5,-1232 420.5,-1232"/>
<polyline fill="none" stroke="black" points="420.5,-1232 279.5,-1232 "/>
<path fill="none" stroke="black" d="M279.5,-1232C273.5,-1232 267.5,-1226 267.5,-1220"/>
<polyline fill="none" stroke="black" points="267.5,-1220 267.5,-1120 "/>
<path fill="none" stroke="black" d="M267.5,-1120C267.5,-1114 273.5,-1108 279.5,-1108"/>
<text text-anchor="middle" x="350" y="-1215.4" font-family="Times Roman,serif" font-size="14.00">Period</text>
<polyline fill="none" stroke="black" points="267.5,-1206 432.5,-1206 "/>
<text text-anchor="start" x="275.5" y="-1189.4" font-family="Times Roman,serif" font-size="14.00">id :integer</text>
<text text-anchor="start" x="275.5" y="-1171.4" font-family="Times Roman,serif" font-size="14.00">p_start :datetime</text>
<text text-anchor="start" x="275.5" y="-1153.4" font-family="Times Roman,serif" font-size="14.00">p_end :datetime</text>
<text text-anchor="start" x="275.5" y="-1135.4" font-family="Times Roman,serif" font-size="14.00">created_at :datetime</text>
<text text-anchor="start" x="275.5" y="-1117.4" font-family="Times Roman,serif" font-size="14.00">updated_at :datetime</text>
</g>
<!-- Period&#45;&gt;BusinessWorkday -->
<g id="edge12" class="edge"><title>Period&#45;&gt;BusinessWorkday</title>
<path fill="none" stroke="#93955a" d="M374.35,-1100.06C381.348,-1079.96 389.227,-1057.33 397.101,-1034.71"/>
<ellipse fill="none" stroke="#93955a" cx="372.999" cy="-1103.94" rx="4.00001" ry="4.00001"/>
<polygon fill="#93955a" stroke="#93955a" points="397.186,-1034.47 404.723,-1026.5 398.83,-1029.74 400.474,-1025.02 400.474,-1025.02 400.474,-1025.02 398.83,-1029.74 396.224,-1023.54 397.186,-1034.47 397.186,-1034.47"/>
</g>
<!-- Period&#45;&gt;Schedule -->
<g id="edge10" class="edge"><title>Period&#45;&gt;Schedule</title>
<path fill="none" stroke="#2298a2" d="M347.888,-1099.38C346.131,-1020.1 345.045,-887.652 353,-774 360.262,-670.256 374.419,-556.175 388.348,-459.012"/>
<ellipse fill="none" stroke="#2298a2" cx="347.99" cy="-1103.84" rx="4" ry="4"/>
<polygon fill="#2298a2" stroke="#2298a2" points="388.355,-458.96 394.236,-449.704 389.068,-454.011 389.782,-449.062 389.782,-449.062 389.782,-449.062 389.068,-454.011 385.328,-448.42 388.355,-458.96 388.355,-458.96"/>
</g>
<!-- Position&#45;&gt;ApprPosition -->
<g id="edge16" class="edge"><title>Position&#45;&gt;ApprPosition</title>
<path fill="none" stroke="#59a7e3" d="M673.931,-820.549C676.782,-797.742 679.974,-772.21 683.119,-747.045"/>
<ellipse fill="none" stroke="#59a7e3" cx="673.395" cy="-824.84" rx="4.00001" ry="4.00001"/>
<polygon fill="#59a7e3" stroke="#59a7e3" points="683.128,-746.973 688.834,-737.608 683.749,-742.011 684.369,-737.05 684.369,-737.05 684.369,-737.05 683.749,-742.011 679.904,-736.492 683.128,-746.973 683.128,-746.973"/>
</g>
<!-- Position&#45;&gt;Employee -->
<g id="edge14" class="edge"><title>Position&#45;&gt;Employee</title>
<path fill="none" stroke="#7f16e7" d="M624.122,-821.336C609.582,-792.655 592.817,-759.584 576.969,-728.323"/>
<ellipse fill="none" stroke="#7f16e7" cx="626.101" cy="-825.241" rx="4.00002" ry="4.00002"/>
<polygon fill="#7f16e7" stroke="#7f16e7" points="576.828,-728.043 576.32,-717.089 574.567,-723.584 572.306,-719.124 572.306,-719.124 572.306,-719.124 574.567,-723.584 568.292,-721.159 576.828,-728.043 576.828,-728.043"/>
</g>
<!-- Week -->
<g id="node9" class="node"><title>Week</title>
<polyline fill="none" stroke="black" points="672.5,-1090 819.5,-1090 "/>
<path fill="none" stroke="black" d="M819.5,-1090C825.5,-1090 831.5,-1096 831.5,-1102"/>
<polyline fill="none" stroke="black" points="831.5,-1102 831.5,-1238 "/>
<path fill="none" stroke="black" d="M831.5,-1238C831.5,-1244 825.5,-1250 819.5,-1250"/>
<polyline fill="none" stroke="black" points="819.5,-1250 672.5,-1250 "/>
<path fill="none" stroke="black" d="M672.5,-1250C666.5,-1250 660.5,-1244 660.5,-1238"/>
<polyline fill="none" stroke="black" points="660.5,-1238 660.5,-1102 "/>
<path fill="none" stroke="black" d="M660.5,-1102C660.5,-1096 666.5,-1090 672.5,-1090"/>
<text text-anchor="middle" x="746" y="-1233.4" font-family="Times Roman,serif" font-size="14.00">Week</text>
<polyline fill="none" stroke="black" points="660.5,-1224 831.5,-1224 "/>
<text text-anchor="start" x="668.5" y="-1207.4" font-family="Times Roman,serif" font-size="14.00">id :integer</text>
<text text-anchor="start" x="668.5" y="-1189.4" font-family="Times Roman,serif" font-size="14.00">business_id :integer</text>
<text text-anchor="start" x="668.5" y="-1171.4" font-family="Times Roman,serif" font-size="14.00">start_date :date</text>
<text text-anchor="start" x="668.5" y="-1153.4" font-family="Times Roman,serif" font-size="14.00">payroll_total :integer</text>
<text text-anchor="start" x="668.5" y="-1135.4" font-family="Times Roman,serif" font-size="14.00">week_of_year :integer</text>
<text text-anchor="start" x="668.5" y="-1117.4" font-family="Times Roman,serif" font-size="14.00">created_at :datetime</text>
<text text-anchor="start" x="668.5" y="-1099.4" font-family="Times Roman,serif" font-size="14.00">updated_at :datetime</text>
</g>
</g>
</svg>
