<?xml version="1.0" encoding="UTF-8" standalone="no"?>
<!DOCTYPE svg PUBLIC "-//W3C//DTD SVG 1.1//EN"
 "http://www.w3.org/Graphics/SVG/1.1/DTD/svg11.dtd">
<!-- Generated by graphviz version 2.26.3 (20100126.1600)
 -->
<!-- Title: models_diagram Pages: 1 -->
<svg width="690pt" height="324pt"
 viewBox="0.00 0.00 690.00 324.00" xmlns="http://www.w3.org/2000/svg" xmlns:xlink="http://www.w3.org/1999/xlink">
<g id="graph1" class="graph" transform="scale(1 1) rotate(0) translate(4 320)">
<title>models_diagram</title>
<polygon fill="white" stroke="white" points="-4,5 -4,-320 687,-320 687,5 -4,5"/>
<!-- _diagram_info -->
<g id="node1" class="node"><title>_diagram_info</title>
<text text-anchor="start" x="8" y="-299.8" font-family="Times Roman,serif" font-size="13.00">Models diagram</text>
<text text-anchor="start" x="8" y="-282.8" font-family="Times Roman,serif" font-size="13.00">Date: Feb 20 2013 &#45; 16:28</text>
<text text-anchor="start" x="8" y="-265.8" font-family="Times Roman,serif" font-size="13.00">Migration version: 20130221002545</text>
<text text-anchor="start" x="8" y="-248.8" font-family="Times Roman,serif" font-size="13.00">Generated by RailRoady 1.1.0</text>
<text text-anchor="start" x="8" y="-231.8" font-family="Times Roman,serif" font-size="13.00">http://railroady.prestonlee.com</text>
</g>
<!-- ApprPosition -->
<g id="node2" class="node"><title>ApprPosition</title>
<ellipse fill="none" stroke="black" cx="609" cy="-93" rx="72.832" ry="18.3848"/>
<text text-anchor="middle" x="609" y="-89.4" font-family="Times Roman,serif" font-size="14.00">ApprPosition</text>
</g>
<!-- Business -->
<g id="node3" class="node"><title>Business</title>
<ellipse fill="none" stroke="black" cx="496" cy="-269" rx="53.9477" ry="18.3848"/>
<text text-anchor="middle" x="496" y="-265.4" font-family="Times Roman,serif" font-size="14.00">Business</text>
</g>
<!-- BusinessWorkday -->
<g id="node4" class="node"><title>BusinessWorkday</title>
<ellipse fill="none" stroke="black" cx="371" cy="-167" rx="97.0803" ry="18.3848"/>
<text text-anchor="middle" x="371" y="-163.4" font-family="Times Roman,serif" font-size="14.00">BusinessWorkday</text>
</g>
<!-- Business&#45;&gt;BusinessWorkday -->
<g id="edge6" class="edge"><title>Business&#45;&gt;BusinessWorkday</title>
<path fill="none" stroke="#feb2e5" d="M468.667,-246.696C448.705,-230.408 421.649,-208.329 401.075,-191.541"/>
<ellipse fill="none" stroke="#feb2e5" cx="471.979" cy="-249.399" rx="4.00002" ry="4.00002"/>
<polygon fill="#feb2e5" stroke="#feb2e5" points="401.004,-191.483 396.101,-181.675 397.13,-188.322 393.256,-185.161 393.256,-185.161 393.256,-185.161 397.13,-188.322 390.411,-188.648 401.004,-191.483 401.004,-191.483"/>
</g>
<!-- Employee -->
<g id="node5" class="node"><title>Employee</title>
<ellipse fill="none" stroke="black" cx="460" cy="-93" rx="58.1882" ry="18.3848"/>
<text text-anchor="middle" x="460" y="-89.4" font-family="Times Roman,serif" font-size="14.00">Employee</text>
</g>
<!-- Business&#45;&gt;Employee -->
<g id="edge2" class="edge"><title>Business&#45;&gt;Employee</title>
<path fill="none" stroke="#23f45b" d="M492.922,-242.235C489.821,-217.574 484.431,-180.058 477,-148 474.94,-139.113 472.188,-129.57 469.499,-120.97"/>
<ellipse fill="none" stroke="#23f45b" cx="493.436" cy="-246.421" rx="4.00001" ry="4.00001"/>
<polygon fill="#23f45b" stroke="#23f45b" points="469.483,-120.921 470.7,-110.023 467.95,-116.162 466.416,-111.403 466.416,-111.403 466.416,-111.403 467.95,-116.162 462.133,-112.783 469.483,-120.921 469.483,-120.921"/>
</g>
<!-- Position -->
<g id="node7" class="node"><title>Position</title>
<ellipse fill="none" stroke="black" cx="574" cy="-167" rx="50.2046" ry="18.3848"/>
<text text-anchor="middle" x="574" y="-163.4" font-family="Times Roman,serif" font-size="14.00">Position</text>
</g>
<!-- Business&#45;&gt;Position -->
<g id="edge4" class="edge"><title>Business&#45;&gt;Position</title>
<path fill="none" stroke="#d3e330" d="M514.859,-244.338C526.652,-228.916 541.832,-209.066 553.86,-193.337"/>
<ellipse fill="none" stroke="#d3e330" cx="512.375" cy="-247.587" rx="4.00002" ry="4.00002"/>
<polygon fill="#d3e330" stroke="#d3e330" points="554.101,-193.021 563.751,-187.811 557.139,-189.049 560.176,-185.078 560.176,-185.078 560.176,-185.078 557.139,-189.049 556.601,-182.344 554.101,-193.021 554.101,-193.021"/>
</g>
<!-- Schedule -->
<g id="node8" class="node"><title>Schedule</title>
<ellipse fill="none" stroke="black" cx="353" cy="-19" rx="55.8614" ry="18.3848"/>
<text text-anchor="middle" x="353" y="-15.4" font-family="Times Roman,serif" font-size="14.00">Schedule</text>
</g>
<!-- Employee&#45;&gt;Schedule -->
<g id="edge8" class="edge"><title>Employee&#45;&gt;Schedule</title>
<path fill="none" stroke="#e72f4b" d="M428.676,-71.3368C415.27,-62.0651 399.606,-51.2323 386.018,-41.8352"/>
<ellipse fill="none" stroke="#e72f4b" cx="432.162" cy="-73.7476" rx="4.00002" ry="4.00002"/>
<polygon fill="#e72f4b" stroke="#e72f4b" points="385.658,-41.5862 379.993,-32.197 381.546,-38.7422 377.434,-35.8981 377.434,-35.8981 377.434,-35.8981 381.546,-38.7422 374.874,-39.5992 385.658,-41.5862 385.658,-41.5862"/>
</g>
<!-- Period -->
<g id="node6" class="node"><title>Period</title>
<ellipse fill="none" stroke="black" cx="309" cy="-269" rx="41.2167" ry="18.3848"/>
<text text-anchor="middle" x="309" y="-265.4" font-family="Times Roman,serif" font-size="14.00">Period</text>
</g>
<!-- Period&#45;&gt;BusinessWorkday -->
<g id="edge12" class="edge"><title>Period&#45;&gt;BusinessWorkday</title>
<path fill="none" stroke="#29c5f3" d="M324.256,-243.901C333.455,-228.768 345.17,-209.494 354.571,-194.028"/>
<ellipse fill="none" stroke="#29c5f3" cx="322.162" cy="-247.346" rx="4.00002" ry="4.00002"/>
<polygon fill="#29c5f3" stroke="#29c5f3" points="354.608,-193.967 363.648,-187.759 357.205,-189.694 359.803,-185.422 359.803,-185.422 359.803,-185.422 357.205,-189.694 355.957,-183.084 354.608,-193.967 354.608,-193.967"/>
</g>
<!-- Period&#45;&gt;Schedule -->
<g id="edge10" class="edge"><title>Period&#45;&gt;Schedule</title>
<path fill="none" stroke="#4f40b5" d="M290.407,-244.803C274.099,-220.546 254.501,-182.02 265,-148 277.426,-107.736 307.202,-68.8112 328.68,-44.4421"/>
<ellipse fill="none" stroke="#4f40b5" cx="292.822" cy="-248.269" rx="4.00002" ry="4.00002"/>
<polygon fill="#4f40b5" stroke="#4f40b5" points="328.914,-44.1829 338.951,-39.7676 332.261,-40.4689 335.609,-36.7548 335.609,-36.7548 335.609,-36.7548 332.261,-40.4689 332.266,-33.742 328.914,-44.1829 328.914,-44.1829"/>
</g>
<!-- Position&#45;&gt;ApprPosition -->
<g id="edge16" class="edge"><title>Position&#45;&gt;ApprPosition</title>
<path fill="none" stroke="#ed46e0" d="M586.205,-141.195C589.303,-134.646 592.645,-127.58 595.789,-120.931"/>
<ellipse fill="none" stroke="#ed46e0" cx="584.362" cy="-145.092" rx="4.00002" ry="4.00002"/>
<polygon fill="#ed46e0" stroke="#ed46e0" points="595.929,-120.636 604.273,-113.52 598.067,-116.116 600.205,-111.596 600.205,-111.596 600.205,-111.596 598.067,-116.116 596.137,-109.672 595.929,-120.636 595.929,-120.636"/>
</g>
<!-- Position&#45;&gt;Employee -->
<g id="edge14" class="edge"><title>Position&#45;&gt;Employee</title>
<path fill="none" stroke="#3515af" d="M542.133,-146.314C527.256,-136.657 509.522,-125.146 494.348,-115.296"/>
<ellipse fill="none" stroke="#3515af" cx="545.627" cy="-148.582" rx="4.00002" ry="4.00002"/>
<polygon fill="#3515af" stroke="#3515af" points="494.137,-115.159 488.199,-105.94 489.943,-112.437 485.749,-109.714 485.749,-109.714 485.749,-109.714 489.943,-112.437 483.299,-113.489 494.137,-115.159 494.137,-115.159"/>
</g>
<!-- Week -->
<g id="node9" class="node"><title>Week</title>
<ellipse fill="none" stroke="black" cx="607" cy="-269" rx="39.0967" ry="18.3848"/>
<text text-anchor="middle" x="607" y="-265.4" font-family="Times Roman,serif" font-size="14.00">Week</text>
</g>
</g>
</svg>
